<svg width="24" height="17" viewBox="0 0 24 17" fill="none" xmlns="http://www.w3.org/2000/svg">
<path d="M23.943 6.17031L22.543 2.62997C22.4242 2.33027 22.2191 2.07359 21.9543 1.89323C21.6895 1.71286 21.3772 1.61713 21.058 1.61844H17.6V0.809222C17.6 0.594603 17.5157 0.388774 17.3657 0.237016C17.2157 0.0852572 17.0122 0 16.8 0H1.6C1.17565 0 0.768687 0.170514 0.468629 0.474031C0.168571 0.777548 0 1.18921 0 1.61844V12.9475C0 13.3768 0.168571 13.7884 0.468629 14.092C0.768687 14.3955 1.17565 14.566 1.6 14.566H3.3C3.47624 15.2623 3.87656 15.8794 4.43785 16.3201C4.99914 16.7608 5.68946 17 6.4 17C7.11054 17 7.80086 16.7608 8.36215 16.3201C8.92344 15.8794 9.32376 15.2623 9.5 14.566H14.5C14.6762 15.2623 15.0766 15.8794 15.6378 16.3201C16.1991 16.7608 16.8895 17 17.6 17C18.3105 17 19.0009 16.7608 19.5622 16.3201C20.1234 15.8794 20.5238 15.2623 20.7 14.566H22.4C22.8243 14.566 23.2313 14.3955 23.5314 14.092C23.8314 13.7884 24 13.3768 24 12.9475V6.47377C24.0001 6.36989 23.9808 6.26692 23.943 6.17031ZM6.4 15.3752C6.08355 15.3752 5.77421 15.2803 5.51109 15.1025C5.24797 14.9246 5.04289 14.6719 4.92179 14.3761C4.80069 14.0804 4.76901 13.755 4.83074 13.441C4.89248 13.1271 5.04487 12.8387 5.26863 12.6124C5.49239 12.386 5.77749 12.2319 6.08786 12.1694C6.39823 12.107 6.71993 12.139 7.01229 12.2615C7.30466 12.384 7.55454 12.5915 7.73035 12.8576C7.90616 13.1238 8 13.4367 8 13.7568C8 14.186 7.83143 14.5977 7.53137 14.9012C7.23131 15.2047 6.82435 15.3752 6.4 15.3752ZM1.6 8.09222V1.61844H16V8.09222H1.6ZM17.6 15.3752C17.2836 15.3752 16.9742 15.2803 16.7111 15.1025C16.448 14.9246 16.2429 14.6719 16.1218 14.3761C16.0007 14.0804 15.969 13.755 16.0307 13.441C16.0925 13.1271 16.2449 12.8387 16.4686 12.6124C16.6924 12.386 16.9775 12.2319 17.2879 12.1694C17.5982 12.107 17.9199 12.139 18.2123 12.2615C18.5047 12.384 18.7545 12.5915 18.9304 12.8576C19.1062 13.1238 19.2 13.4367 19.2 13.7568C19.2 14.186 19.0314 14.5977 18.7314 14.9012C18.4313 15.2047 18.0243 15.3752 17.6 15.3752ZM17.6 5.66455V3.23689H21.058L22.018 5.66455H17.6Z" fill="#2E7D32"/>
</svg>
