<svg width="32" height="32" viewBox="0 0 32 32" fill="none" xmlns="http://www.w3.org/2000/svg">
<circle cx="16" cy="16" r="16" fill="#2E7D32"/>
<path d="M21.7008 21.8795C21.7854 21.9789 21.8395 22.1001 21.8567 22.2289C21.874 22.3577 21.8536 22.4886 21.7981 22.6063C21.7426 22.7241 21.6542 22.8237 21.5433 22.8934C21.4325 22.9632 21.3038 23.0001 21.1723 23H6.6895C6.55816 23 6.42956 22.9629 6.31882 22.8931C6.20808 22.8233 6.11982 22.7237 6.0644 22.606C6.00898 22.4883 5.98872 22.3574 6.00599 22.2287C6.02326 22.1 6.07736 21.9789 6.16191 21.8795C7.44985 20.3645 9.05158 19.2883 10.8318 18.7123C9.75064 18.0468 8.91824 17.0513 8.46049 15.8765C8.00274 14.7017 7.94455 13.4115 8.29472 12.2011C8.6449 10.9907 9.38438 9.92601 10.4013 9.16801C11.4182 8.41001 12.6572 8 13.9309 8C15.2046 8 16.4436 8.41001 17.4605 9.16801C18.4775 9.92601 19.2169 10.9907 19.5671 12.2011C19.9173 13.4115 19.8591 14.7017 19.4014 15.8765C18.9436 17.0513 18.1112 18.0468 17.0301 18.7123C18.8103 19.2883 20.412 20.3645 21.7008 21.8795ZM21.5913 9.826C21.508 9.86112 21.4325 9.91213 21.3691 9.9761C21.3057 10.0401 21.2557 10.1158 21.2219 10.1989C21.1881 10.2819 21.1712 10.3708 21.1722 10.4603C21.1731 10.5499 21.192 10.6383 21.2275 10.7207C21.6462 11.6937 21.862 12.7402 21.862 13.7975C21.862 14.8549 21.6462 15.9014 21.2275 16.8744C21.1556 17.0407 21.1535 17.2285 21.2216 17.3963C21.2898 17.5642 21.4226 17.6984 21.5909 17.7695C21.7592 17.8406 21.9491 17.8427 22.1189 17.7753C22.2888 17.708 22.4246 17.5767 22.4965 17.4104C22.988 16.2678 23.2413 15.0391 23.2413 13.7975C23.2413 12.556 22.988 11.3273 22.4965 10.1847C22.4246 10.0185 22.2888 9.88737 22.1191 9.8201C21.9493 9.75283 21.7595 9.75495 21.5913 9.826ZM25.0267 9.09833C24.9928 9.01349 24.9421 8.93622 24.8775 8.8711C24.8129 8.80599 24.7357 8.75435 24.6506 8.71924C24.5654 8.68413 24.474 8.66627 24.3817 8.66671C24.2895 8.66716 24.1982 8.68589 24.1134 8.72182C24.0286 8.75774 23.952 8.81013 23.888 8.87586C23.824 8.94159 23.7741 9.01934 23.7411 9.10451C23.7081 9.18967 23.6927 9.28052 23.6958 9.37166C23.699 9.46281 23.7206 9.5524 23.7594 9.63514C24.3277 10.951 24.6206 12.3669 24.6206 13.7975C24.6206 15.2282 24.3277 16.6441 23.7594 17.96C23.7206 18.0427 23.699 18.1323 23.6958 18.2234C23.6927 18.3146 23.7081 18.4054 23.7411 18.4906C23.7741 18.5757 23.824 18.6535 23.888 18.7192C23.952 18.785 24.0286 18.8373 24.1134 18.8733C24.1982 18.9092 24.2895 18.9279 24.3817 18.9284C24.474 18.9288 24.5654 18.911 24.6506 18.8759C24.7357 18.8407 24.8129 18.7891 24.8775 18.724C24.9421 18.6589 24.9928 18.5816 25.0267 18.4968C25.6689 17.0114 26 15.4128 26 13.7975C26 12.1822 25.6689 10.5837 25.0267 9.09833Z" fill="white"/>
</svg>
