<svg width="32" height="32" viewBox="0 0 32 32" fill="none" xmlns="http://www.w3.org/2000/svg">
<circle cx="16" cy="16" r="16" fill="#2E7D32"/>
<path d="M11.5172 19.4783C11.5172 19.6846 11.4566 19.8864 11.3429 20.058C11.2292 20.2296 11.0677 20.3633 10.8786 20.4423C10.6896 20.5213 10.4816 20.542 10.2809 20.5017C10.0803 20.4614 9.89595 20.362 9.75127 20.2161C9.6066 20.0702 9.50807 19.8842 9.46815 19.6818C9.42824 19.4794 9.44872 19.2696 9.52702 19.0789C9.60532 18.8883 9.73791 18.7253 9.90803 18.6106C10.0782 18.496 10.2782 18.4348 10.4828 18.4348C10.7571 18.4348 11.0202 18.5447 11.2142 18.7404C11.4083 18.9361 11.5172 19.2015 11.5172 19.4783ZM14.9655 19.4783C14.9655 20.3726 14.7026 21.2468 14.21 21.9904C13.7175 22.734 13.0174 23.3136 12.1982 23.6558C11.3791 23.998 10.4778 24.0876 9.60822 23.9131C8.73865 23.7386 7.9399 23.308 7.31297 22.6756C6.68605 22.0432 6.25911 21.2375 6.08614 20.3604C5.91317 19.4833 6.00194 18.5741 6.34123 17.7479C6.68052 16.9216 7.25509 16.2154 7.99227 15.7186C8.72946 15.2217 9.59615 14.9565 10.4828 14.9565C11.6712 14.9579 12.8107 15.4347 13.651 16.2824C14.4914 17.1301 14.9641 18.2794 14.9655 19.4783ZM12.8966 19.4783C12.8966 18.9967 12.755 18.526 12.4898 18.1256C12.2245 17.7252 11.8475 17.4131 11.4065 17.2288C10.9654 17.0445 10.4801 16.9963 10.0119 17.0903C9.54362 17.1842 9.11353 17.4161 8.77595 17.7566C8.43838 18.0971 8.20848 18.531 8.11535 19.0033C8.02221 19.4756 8.07001 19.9651 8.25271 20.41C8.4354 20.8549 8.74478 21.2352 9.14173 21.5027C9.53867 21.7702 10.0054 21.913 10.4828 21.913C11.1229 21.913 11.7369 21.6565 12.1896 21.1999C12.6422 20.7433 12.8966 20.124 12.8966 19.4783ZM26 20.8696C25.9986 21.6687 25.6943 22.4371 25.1494 23.0172C24.6045 23.5973 23.8603 23.9452 23.0693 23.9897C22.2782 24.0342 21.5003 23.7718 20.8948 23.2564C20.2894 22.7409 19.9023 22.0114 19.8129 21.2174H17.0345C16.8516 21.2174 16.6762 21.1441 16.5468 21.0136C16.4175 20.8832 16.3448 20.7062 16.3448 20.5217V19.4783C16.3432 17.9105 15.7251 16.4074 14.6261 15.2989C13.5271 14.1903 12.037 13.5668 10.4828 13.5652H8.06897C7.88606 13.5652 7.71064 13.4919 7.58131 13.3615C7.45197 13.231 7.37931 13.0541 7.37931 12.8696C7.37931 12.6851 7.45197 12.5081 7.58131 12.3777C7.71064 12.2472 7.88606 12.1739 8.06897 12.1739H8.75862V9.3913H8.06897C7.88606 9.3913 7.71064 9.31801 7.58131 9.18755C7.45197 9.05709 7.37931 8.88015 7.37931 8.69565C7.37931 8.51115 7.45197 8.33421 7.58131 8.20375C7.71064 8.07329 7.88606 8 8.06897 8H18.4138C18.5967 8 18.7721 8.07329 18.9015 8.20375C19.0308 8.33421 19.1034 8.51115 19.1034 8.69565C19.1034 8.88015 19.0308 9.05709 18.9015 9.18755C18.7721 9.31801 18.5967 9.3913 18.4138 9.3913H17.7241V13.033L19.7931 13.5983V10.7826C19.7931 10.5981 19.8658 10.4212 19.9951 10.2907C20.1244 10.1602 20.2999 10.087 20.4828 10.087C20.6657 10.087 20.8411 10.1602 20.9704 10.2907C21.0998 10.4212 21.1724 10.5981 21.1724 10.7826V13.9748L24.3095 14.8322L24.3276 14.8374C24.6131 14.9222 24.8635 15.0985 25.0408 15.3397C25.2181 15.5808 25.3127 15.8737 25.3103 16.1739V18.9096C25.7562 19.4638 25.9997 20.1558 26 20.8696ZM24.2759 20.8696C24.2759 20.5944 24.195 20.3254 24.0434 20.0966C23.8918 19.8678 23.6764 19.6895 23.4244 19.5842C23.1724 19.4789 22.895 19.4513 22.6275 19.505C22.3599 19.5587 22.1141 19.6912 21.9212 19.8858C21.7283 20.0803 21.597 20.3282 21.5437 20.5981C21.4905 20.868 21.5178 21.1478 21.6222 21.402C21.7266 21.6562 21.9034 21.8735 22.1302 22.0264C22.3571 22.1793 22.6238 22.2609 22.8966 22.2609C23.2624 22.2609 23.6132 22.1143 23.8719 21.8534C24.1305 21.5924 24.2759 21.2386 24.2759 20.8696Z" fill="white"/>
</svg>
