<svg width="20" height="25" viewBox="0 0 20 25" fill="none" xmlns="http://www.w3.org/2000/svg">
<path d="M10 0C7.34876 0.00295397 4.80697 1.03867 2.93225 2.87992C1.05754 4.72117 0.00300765 7.2176 0 9.82153C0 18.2256 9.09091 24.5728 9.47841 24.8384C9.63126 24.9436 9.81337 25 10 25C10.1866 25 10.3687 24.9436 10.5216 24.8384C10.9091 24.5728 20 18.2256 20 9.82153C19.997 7.2176 18.9425 4.72117 17.0677 2.87992C15.193 1.03867 12.6512 0.00295397 10 0ZM10 6.25006C10.7192 6.25006 11.4223 6.45953 12.0203 6.85196C12.6183 7.2444 13.0843 7.80219 13.3596 8.45479C13.6348 9.10739 13.7068 9.82549 13.5665 10.5183C13.4262 11.2111 13.0799 11.8475 12.5713 12.3469C12.0627 12.8464 11.4148 13.1866 10.7094 13.3244C10.004 13.4622 9.27288 13.3914 8.60842 13.1211C7.94397 12.8508 7.37604 12.3931 6.97647 11.8057C6.57691 11.2184 6.36364 10.5279 6.36364 9.82153C6.36364 8.87432 6.74675 7.9659 7.4287 7.29612C8.11065 6.62634 9.03558 6.25006 10 6.25006Z" fill="#2E7D32"/>
</svg>
