<svg width="32" height="32" viewBox="0 0 32 32" fill="none" xmlns="http://www.w3.org/2000/svg">
<circle cx="16" cy="16" r="16" fill="#2E7D32"/>
<path d="M25.8681 13.7652L23.8742 9.7034C23.8008 9.5539 23.6991 9.4206 23.5751 9.3111C23.451 9.20161 23.307 9.11807 23.1512 9.06525C22.9954 9.01243 22.831 8.99138 22.6672 9.00328C22.5034 9.01518 22.3436 9.05982 22.1967 9.13463L20.2536 10.1234L16.1603 9.02087C16.0553 8.99304 15.945 8.99304 15.84 9.02087L11.7467 10.1234L9.80357 9.13463C9.65674 9.05982 9.49688 9.01518 9.33312 9.00328C9.16935 8.99138 9.00489 9.01243 8.84912 9.06525C8.69334 9.11807 8.54932 9.20161 8.42526 9.3111C8.3012 9.4206 8.19954 9.5539 8.12609 9.7034L6.13218 13.7644C6.0587 13.9139 6.01486 14.0766 6.00317 14.2434C5.99148 14.4101 6.01217 14.5775 6.06404 14.7361C6.11592 14.8947 6.19797 15.0414 6.30551 15.1677C6.41305 15.294 6.54398 15.3975 6.69082 15.4723L8.80036 16.547L13.1359 19.6995C13.1997 19.7458 13.2716 19.7795 13.3476 19.799L18.348 21.0717C18.4527 21.0985 18.5625 21.0971 18.6665 21.0679C18.7706 21.0386 18.8654 20.9824 18.9418 20.9047L22.067 17.7227L23.2453 16.5231L25.3095 15.4723C25.6058 15.3212 25.8311 15.0566 25.9359 14.7365C26.0407 14.4164 26.0163 14.067 25.8681 13.7652ZM21.5795 16.4197L18.891 14.2273C18.7706 14.1291 18.6187 14.0798 18.4647 14.0887C18.3106 14.0977 18.1652 14.1643 18.0566 14.2759C16.6651 15.703 15.1141 15.5224 14.125 14.886L17.5034 11.545H19.9888L22.1147 15.8732L21.5795 16.4197ZM18.3082 19.7496L13.7672 18.5938L9.92311 15.7984L12.1108 11.3437L16.0002 10.2944L16.7658 10.5005L13.2499 13.9752L13.2437 13.9823C13.1113 14.1171 13.0104 14.2804 12.9483 14.4602C12.8862 14.6399 12.8646 14.8316 12.885 15.021C12.9054 15.2105 12.9673 15.3928 13.0662 15.5546C13.165 15.7164 13.2983 15.8536 13.4562 15.9559C15.0626 17.0004 17.001 16.831 18.5277 15.5582L20.688 17.325L18.3082 19.7496ZM16.2986 22.5179C16.2648 22.6555 16.1869 22.7776 16.0772 22.8649C15.9675 22.9523 15.8323 22.9998 15.6931 23C15.6417 22.9999 15.5906 22.9935 15.5407 22.9809L12.2819 22.1512C12.2057 22.1321 12.1339 22.0983 12.0702 22.0518L10.0114 20.5547C9.88481 20.4535 9.80144 20.3065 9.77865 20.1443C9.75585 19.982 9.79539 19.8171 9.88904 19.6839C9.98268 19.5506 10.1232 19.4592 10.2813 19.4288C10.4395 19.3984 10.6031 19.4312 10.738 19.5205L12.6999 20.9476L15.8439 21.7463C16.0047 21.7873 16.1429 21.8916 16.2282 22.0363C16.3135 22.181 16.3388 22.3542 16.2986 22.5179Z" fill="white"/>
</svg>
