<svg width="24" height="19" viewBox="0 0 24 19" fill="none" xmlns="http://www.w3.org/2000/svg">
<path d="M6.62069 13.6304C6.62069 13.8755 6.54789 14.1151 6.41148 14.3189C6.27508 14.5226 6.0812 14.6815 5.85437 14.7752C5.62753 14.869 5.37793 14.8936 5.13713 14.8458C4.89633 14.7979 4.67513 14.6799 4.50152 14.5066C4.32791 14.3333 4.20968 14.1125 4.16179 13.8722C4.11389 13.6318 4.13847 13.3827 4.23243 13.1562C4.32638 12.9298 4.48549 12.7363 4.68964 12.6001C4.89378 12.464 5.13379 12.3913 5.37931 12.3913C5.70855 12.3913 6.0243 12.5219 6.2571 12.7542C6.4899 12.9866 6.62069 13.3018 6.62069 13.6304ZM10.7586 13.6304C10.7586 14.6924 10.4431 15.7306 9.85205 16.6136C9.26096 17.4966 8.42083 18.1849 7.43788 18.5913C6.45494 18.9977 5.37335 19.104 4.32986 18.8968C3.28638 18.6896 2.32788 18.1782 1.57557 17.4273C0.823256 16.6763 0.310926 15.7196 0.103364 14.678C-0.104198 13.6364 0.00233075 12.5567 0.409478 11.5756C0.816625 10.5944 1.50611 9.75582 2.39073 9.1658C3.27535 8.57579 4.31538 8.26087 5.37931 8.26087C6.80549 8.26251 8.17278 8.82875 9.18124 9.83539C10.1897 10.842 10.757 12.2068 10.7586 13.6304ZM8.27586 13.6304C8.27586 13.0586 8.10598 12.4996 7.78771 12.0241C7.46943 11.5486 7.01705 11.1781 6.48777 10.9592C5.9585 10.7404 5.3761 10.6831 4.81422 10.7947C4.25235 10.9062 3.73623 11.1816 3.33114 11.586C2.92605 11.9903 2.65018 12.5055 2.53842 13.0664C2.42665 13.6272 2.48401 14.2086 2.70325 14.7369C2.92248 15.2652 3.29374 15.7168 3.77007 16.0345C4.24641 16.3522 4.80643 16.5217 5.37931 16.5217C6.14753 16.5217 6.88427 16.2171 7.42748 15.6749C7.97069 15.1327 8.27586 14.3973 8.27586 13.6304ZM24 15.2826C23.9984 16.2316 23.6332 17.144 22.9793 17.8329C22.3254 18.5218 21.4323 18.935 20.4831 18.9878C19.5339 19.0406 18.6003 18.729 17.8738 18.1169C17.1473 17.5048 16.6828 16.6386 16.5755 15.6956H13.2414C13.0219 15.6956 12.8114 15.6086 12.6562 15.4537C12.501 15.2988 12.4138 15.0887 12.4138 14.8696V13.6304C12.4119 11.7687 11.6701 9.98384 10.3513 8.66743C9.03252 7.35101 7.24438 6.61061 5.37931 6.60869H2.48276C2.26327 6.60869 2.05277 6.52166 1.89757 6.36674C1.74237 6.21182 1.65517 6.0017 1.65517 5.78261C1.65517 5.56352 1.74237 5.3534 1.89757 5.19848C2.05277 5.04355 2.26327 4.95652 2.48276 4.95652H3.31035V1.65217H2.48276C2.26327 1.65217 2.05277 1.56514 1.89757 1.41022C1.74237 1.2553 1.65517 1.04518 1.65517 0.826087C1.65517 0.606995 1.74237 0.396877 1.89757 0.241955C2.05277 0.0870341 2.26327 0 2.48276 0H14.8966C15.116 0 15.3265 0.0870341 15.4817 0.241955C15.6369 0.396877 15.7241 0.606995 15.7241 0.826087C15.7241 1.04518 15.6369 1.2553 15.4817 1.41022C15.3265 1.56514 15.116 1.65217 14.8966 1.65217H14.069V5.97674L16.5517 6.64793V3.30435C16.5517 3.08526 16.6389 2.87514 16.7941 2.72022C16.9493 2.56529 17.1598 2.47826 17.3793 2.47826C17.5988 2.47826 17.8093 2.56529 17.9645 2.72022C18.1197 2.87514 18.2069 3.08526 18.2069 3.30435V7.09505L21.9714 8.1132L21.9931 8.1194C22.3357 8.22013 22.6362 8.42952 22.8489 8.71589C23.0617 9.00225 23.1753 9.35 23.1724 9.70652V12.9551C23.7074 13.6133 23.9996 14.435 24 15.2826ZM21.931 15.2826C21.931 14.9558 21.834 14.6364 21.6521 14.3647C21.4702 14.093 21.2117 13.8812 20.9093 13.7562C20.6068 13.6311 20.274 13.5984 19.953 13.6622C19.6319 13.7259 19.337 13.8833 19.1055 14.1143C18.874 14.3454 18.7164 14.6398 18.6525 14.9603C18.5886 15.2808 18.6214 15.613 18.7467 15.9149C18.872 16.2168 19.0841 16.4748 19.3563 16.6563C19.6285 16.8379 19.9485 16.9348 20.2759 16.9348C20.7148 16.9348 21.1358 16.7607 21.4462 16.4509C21.7567 16.141 21.931 15.7208 21.931 15.2826Z" fill="#2E7D32"/>
</svg>
