<svg width="24" height="19" viewBox="0 0 24 19" fill="none" xmlns="http://www.w3.org/2000/svg">
<path d="M19.7385 11.7823C18.7796 12.3591 17.6782 12.6625 16.556 12.6589C15.6159 12.6516 14.6864 12.4613 13.8205 12.0989C13.1531 13.0313 12.796 14.1463 12.7987 15.2889V18.2067C12.7989 18.3152 12.7766 18.4226 12.7331 18.5222C12.6897 18.6219 12.626 18.7116 12.546 18.7858C12.466 18.86 12.3715 18.9172 12.2682 18.9538C12.165 18.9903 12.0552 19.0054 11.9458 18.9983C11.7402 18.9806 11.549 18.8866 11.4105 18.7352C11.272 18.5838 11.1964 18.3862 11.1989 18.182V16.9511L7.33759 13.1299C6.76358 13.3418 6.15652 13.4527 5.54389 13.4574C4.7005 13.4595 3.87291 13.2311 3.15229 12.7975C0.973655 11.4875 -0.199148 8.47264 0.0278138 4.72961C0.0392413 4.53596 0.122125 4.35321 0.260729 4.21604C0.399332 4.07888 0.584006 3.99686 0.779688 3.98555C4.56205 3.76491 7.60854 4.92156 8.92832 7.07754C9.44685 7.9226 9.67322 8.91176 9.57321 9.89545C9.567 9.97167 9.5386 10.0445 9.49147 10.1051C9.44433 10.1656 9.38046 10.2114 9.3076 10.2368C9.23473 10.2623 9.15598 10.2663 9.08086 10.2484C9.00575 10.2304 8.93749 10.1914 8.88433 10.1359L6.96465 8.14712C6.81343 8.00494 6.61206 7.92685 6.40349 7.92949C6.19491 7.93213 5.99563 8.0153 5.84813 8.16126C5.70064 8.30723 5.6166 8.50443 5.61392 8.71084C5.61125 8.91724 5.69017 9.11652 5.83384 9.26617L11.2209 14.7328C11.2269 14.6556 11.2339 14.5785 11.2419 14.5023C11.4168 13.0347 12.0712 11.6638 13.1056 10.598L18.1638 5.30843C18.3139 5.16003 18.3982 4.95871 18.3983 4.74875C18.3984 4.5388 18.3142 4.33741 18.1643 4.18888C18.0143 4.04035 17.8109 3.95686 17.5987 3.95677C17.3866 3.95667 17.1831 4.03999 17.033 4.18838L12.1338 9.31564C12.0847 9.36704 12.0227 9.40451 11.9541 9.42415C11.8854 9.44378 11.8128 9.44487 11.7436 9.4273C11.6744 9.40973 11.6112 9.37413 11.5606 9.32422C11.51 9.27431 11.4739 9.2119 11.4559 9.14348C10.982 7.41394 11.1909 5.69233 12.0958 4.21411C13.8815 1.29725 18.0368 -0.264077 23.2119 0.0367112C23.4076 0.0480199 23.5923 0.130042 23.7309 0.267204C23.8695 0.404367 23.9524 0.58712 23.9638 0.780767C24.2638 5.90308 22.686 10.0152 19.7385 11.7823Z" fill="#2E7D32"/>
</svg>
