<svg width="32" height="32" viewBox="0 0 32 32" fill="none" xmlns="http://www.w3.org/2000/svg">
<circle cx="16" cy="16" r="16" fill="#2E7D32"/>
<path d="M22.4488 17.9219C21.6497 18.4077 20.7319 18.6632 19.7967 18.6602C19.0133 18.6539 18.2387 18.4937 17.5171 18.1886C16.9609 18.9737 16.6633 19.9127 16.6656 20.8748V23.332C16.6658 23.4233 16.6472 23.5138 16.6109 23.5977C16.5747 23.6816 16.5216 23.7571 16.455 23.8196C16.3883 23.8821 16.3095 23.9303 16.2235 23.9611C16.1375 23.9918 16.046 24.0046 15.9548 23.9985C15.7835 23.9836 15.6242 23.9045 15.5087 23.777C15.3933 23.6495 15.3303 23.4831 15.3325 23.3111V22.2746L12.1147 19.0568C11.6363 19.2352 11.1304 19.3286 10.6199 19.3326C9.91708 19.3343 9.22742 19.142 8.62691 18.7768C6.81138 17.6736 5.83404 15.1349 6.02318 11.9828C6.0327 11.8198 6.10177 11.6659 6.21727 11.5504C6.33278 11.4348 6.48667 11.3658 6.64974 11.3563C9.80171 11.1704 12.3405 12.1445 13.4403 13.96C13.8724 14.6717 14.061 15.5046 13.9777 16.333C13.9725 16.3972 13.9488 16.4585 13.9096 16.5095C13.8703 16.5605 13.8171 16.5991 13.7563 16.6205C13.6956 16.6419 13.63 16.6453 13.5674 16.6302C13.5048 16.6151 13.4479 16.5822 13.4036 16.5355L11.8039 14.8607C11.6779 14.741 11.5101 14.6752 11.3362 14.6775C11.1624 14.6797 10.9964 14.7497 10.8734 14.8726C10.7505 14.9956 10.6805 15.1616 10.6783 15.3354C10.676 15.5093 10.7418 15.6771 10.8615 15.8031L15.3508 20.4066C15.3558 20.3416 15.3616 20.2766 15.3683 20.2124C15.514 18.9766 16.0594 17.8221 16.9214 16.9246L21.1365 12.4703C21.2616 12.3453 21.3319 12.1758 21.3319 11.999C21.332 11.8221 21.2619 11.6526 21.1369 11.5275C21.0119 11.4024 20.8424 11.3321 20.6656 11.332C20.4888 11.3319 20.3192 11.4021 20.1941 11.5271L16.1115 15.8447C16.0706 15.888 16.0189 15.9196 15.9617 15.9361C15.9045 15.9527 15.844 15.9536 15.7863 15.9388C15.7286 15.924 15.676 15.894 15.6338 15.852C15.5917 15.8099 15.5616 15.7574 15.5466 15.6998C15.1516 14.2433 15.3258 12.7935 16.0798 11.5487C17.5679 9.09242 21.0307 7.77762 25.3433 8.03091C25.5063 8.04044 25.6602 8.10951 25.7757 8.22501C25.8912 8.34052 25.9603 8.49442 25.9698 8.65749C26.2198 12.971 24.905 16.4338 22.4488 17.9219Z" fill="white"/>
</svg>
