<svg width="26" height="24" viewBox="0 0 26 24" fill="none" xmlns="http://www.w3.org/2000/svg">
<path d="M25.0786 18.7735C25.7202 17.4494 26.035 15.9922 25.9969 14.5227C25.9588 13.0533 25.5688 11.6141 24.8594 10.3248C24.15 9.0354 23.1416 7.93307 21.918 7.10932C20.6944 6.28558 19.2909 5.76421 17.8242 5.58852C17.3361 4.4595 16.6265 3.43871 15.737 2.58593C14.8475 1.73315 13.7959 1.06552 12.6439 0.622142C11.4918 0.178764 10.2624 -0.0314527 9.02763 0.00380204C7.79288 0.0390568 6.57761 0.319074 5.45299 0.827457C4.32837 1.33584 3.317 2.06237 2.4781 2.9645C1.63921 3.86663 0.989651 4.92622 0.567472 6.08124C0.145293 7.23625 -0.0410222 8.46347 0.0194361 9.69102C0.0798944 10.9186 0.385911 12.1218 0.919566 13.2302L0.0757297 16.0838C-0.0186183 16.4024 -0.0249269 16.7404 0.0574677 17.0622C0.139862 17.3841 0.307914 17.6778 0.543943 17.9127C0.779972 18.1475 1.07525 18.3147 1.39872 18.3967C1.72218 18.4787 2.06188 18.4724 2.38206 18.3785L5.25018 17.539C6.17112 17.9792 7.15849 18.2659 8.17285 18.3878C8.66566 19.5366 9.38751 20.5741 10.2947 21.4375C11.202 22.301 12.2758 22.9724 13.4512 23.4112C14.6266 23.85 15.8793 24.0471 17.1335 23.9905C18.3876 23.934 19.6172 23.625 20.748 23.0823L23.6161 23.9218C23.9362 24.0156 24.2757 24.0218 24.599 23.9399C24.9224 23.858 25.2175 23.6909 25.4535 23.4562C25.6895 23.2215 25.8576 22.9279 25.9401 22.6063C26.0226 22.2846 26.0165 21.9468 25.9224 21.6283L25.0786 18.7735ZM23.1924 18.9433L24.1419 22.1503L20.9198 21.2068C20.687 21.1397 20.437 21.1658 20.2233 21.2795C18.5134 22.188 16.5145 22.396 14.6526 21.8593C12.7908 21.3225 11.2133 20.0835 10.2563 18.4063C11.5277 18.2742 12.758 17.8822 13.87 17.2548C14.9819 16.6273 15.9516 15.778 16.718 14.7602C17.4845 13.7423 18.0313 12.5778 18.3241 11.3397C18.6169 10.1017 18.6494 8.81678 18.4196 7.56563C19.5274 7.82544 20.5603 8.33502 21.4387 9.05505C22.3172 9.77509 23.0176 10.6863 23.4859 11.7184C23.9541 12.7505 24.1778 13.8758 24.1396 15.0076C24.1014 16.1393 23.8024 17.2472 23.2656 18.2457C23.15 18.4596 23.1237 18.7102 23.1924 18.9433Z" fill="#2E7D32"/>
</svg>
