<svg width="24" height="24" viewBox="0 0 24 24" fill="none" xmlns="http://www.w3.org/2000/svg">
<path d="M14.8362 13.9845L17.49 15.3092C17.3642 15.9379 17.0242 16.5034 16.5281 16.9093C16.0319 17.3153 15.4103 17.5365 14.7692 17.5352C12.5666 17.5328 10.455 16.6566 8.8975 15.099C7.34004 13.5414 6.46398 11.4295 6.46154 9.22673C6.46136 8.58643 6.68303 7.96584 7.08884 7.47057C7.49465 6.97531 8.05951 6.63598 8.68731 6.51032L10.0119 9.16442L8.88462 10.8423C8.80038 10.9686 8.74861 11.1139 8.73392 11.265C8.71923 11.4162 8.74206 11.5687 8.80038 11.7089C9.46083 13.2787 10.7096 14.5276 12.2792 15.1881C12.4199 15.249 12.5735 15.2739 12.7262 15.2606C12.8789 15.2473 13.0258 15.1962 13.1538 15.1119L14.8362 13.9845ZM24 11.9962C24.0005 14.0682 23.4645 16.105 22.4444 17.9084C21.4242 19.7117 19.9546 21.2202 18.1785 22.287C16.4024 23.3538 14.3805 23.9426 12.3094 23.996C10.2383 24.0494 8.18868 23.5657 6.36 22.5919L2.43115 23.9016C2.10587 24.0101 1.7568 24.0258 1.42307 23.9471C1.08934 23.8683 0.784139 23.6981 0.541674 23.4557C0.29921 23.2132 0.129063 22.9079 0.0503048 22.5742C-0.0284533 22.2404 -0.0127104 21.8913 0.0957689 21.566L1.40538 17.6368C0.549402 16.0273 0.0713043 14.2439 0.00738154 12.422C-0.0565412 10.6001 0.295391 8.78762 1.03646 7.12207C1.77754 5.45652 2.88828 3.98171 4.28437 2.80957C5.68046 1.63743 7.32521 0.798782 9.09377 0.357276C10.8623 -0.0842302 12.7082 -0.116988 14.4913 0.26149C16.2745 0.639967 17.9479 1.41973 19.3847 2.5416C20.8215 3.66346 21.9839 5.09794 22.7836 6.73614C23.5832 8.37435 23.9993 10.1732 24 11.9962ZM19.3846 14.7657C19.3847 14.5942 19.3371 14.4261 19.247 14.2801C19.1569 14.1342 19.028 14.0162 18.8746 13.9395L15.1823 12.0932C15.037 12.0207 14.8751 11.9879 14.713 11.9981C14.551 12.0082 14.3944 12.0609 14.2592 12.1509L12.5642 13.2817C11.7861 12.854 11.1458 12.2136 10.7181 11.4354L11.8488 9.74024C11.9388 9.60504 11.9915 9.44849 12.0016 9.28641C12.0118 9.12432 11.979 8.96243 11.9065 8.81708L10.0604 5.12442C9.98386 4.96987 9.86559 4.83985 9.71896 4.74909C9.57233 4.65833 9.40321 4.61046 9.23077 4.61091C8.00669 4.61091 6.83275 5.09721 5.9672 5.96285C5.10165 6.82849 4.61538 8.00254 4.61538 9.22673C4.61844 11.919 5.6892 14.5002 7.59275 16.4039C9.4963 18.3076 12.0772 19.3785 14.7692 19.3816C15.3753 19.3816 15.9755 19.2622 16.5355 19.0302C17.0954 18.7982 17.6042 18.4582 18.0328 18.0296C18.4614 17.601 18.8013 17.0921 19.0333 16.5321C19.2652 15.9721 19.3846 15.3719 19.3846 14.7657Z" fill="#2E7D32"/>
</svg>
